<mxfile host="app.diagrams.net" modified="2024-02-14T19:56:29.243Z" agent="Mozilla/5.0 (Macintosh; Intel Mac OS X 10_15_7) AppleWebKit/537.36 (KHTML, like Gecko) Chrome/121.0.0.0 Safari/537.36" etag="ihBSJ5lg20K5-VK2YOTJ" version="23.1.4" type="github">
  <diagram id="C5RBs43oDa-KdzZeNtuy" name="Page-1">
    <mxGraphModel dx="1242" dy="820" grid="1" gridSize="10" guides="1" tooltips="1" connect="1" arrows="1" fold="1" page="1" pageScale="1" pageWidth="827" pageHeight="1169" math="0" shadow="0">
      <root>
        <mxCell id="WIyWlLk6GJQsqaUBKTNV-0" />
        <mxCell id="WIyWlLk6GJQsqaUBKTNV-1" parent="WIyWlLk6GJQsqaUBKTNV-0" />
        <mxCell id="ja60NFYnNgO1zGgDAgQr-10" value="" style="edgeStyle=orthogonalEdgeStyle;rounded=0;orthogonalLoop=1;jettySize=auto;html=1;" edge="1" parent="WIyWlLk6GJQsqaUBKTNV-1">
          <mxGeometry relative="1" as="geometry">
            <mxPoint x="65" y="116.79999999999995" as="sourcePoint" />
            <mxPoint x="65" y="156" as="targetPoint" />
          </mxGeometry>
        </mxCell>
        <mxCell id="ja60NFYnNgO1zGgDAgQr-6" value="" style="shadow=0;dashed=0;html=1;strokeColor=none;fillColor=#4495D1;labelPosition=center;verticalLabelPosition=bottom;verticalAlign=top;align=center;outlineConnect=0;shape=mxgraph.veeam.data_file;" vertex="1" parent="WIyWlLk6GJQsqaUBKTNV-1">
          <mxGeometry x="45.39999999999998" y="60" width="47.2" height="60.8" as="geometry" />
        </mxCell>
        <mxCell id="ja60NFYnNgO1zGgDAgQr-24" value="" style="edgeStyle=orthogonalEdgeStyle;rounded=0;orthogonalLoop=1;jettySize=auto;html=1;" edge="1" parent="WIyWlLk6GJQsqaUBKTNV-1" source="ja60NFYnNgO1zGgDAgQr-9" target="ja60NFYnNgO1zGgDAgQr-23">
          <mxGeometry relative="1" as="geometry" />
        </mxCell>
        <mxCell id="ja60NFYnNgO1zGgDAgQr-9" value="" style="sketch=0;points=[[0,0,0],[0.25,0,0],[0.5,0,0],[0.75,0,0],[1,0,0],[0,1,0],[0.25,1,0],[0.5,1,0],[0.75,1,0],[1,1,0],[0,0.25,0],[0,0.5,0],[0,0.75,0],[1,0.25,0],[1,0.5,0],[1,0.75,0]];outlineConnect=0;fontColor=#232F3E;fillColor=#7AA116;strokeColor=#ffffff;dashed=0;verticalLabelPosition=bottom;verticalAlign=top;align=center;html=1;fontSize=12;fontStyle=0;aspect=fixed;shape=mxgraph.aws4.resourceIcon;resIcon=mxgraph.aws4.s3;" vertex="1" parent="WIyWlLk6GJQsqaUBKTNV-1">
          <mxGeometry x="30" y="160" width="78" height="78" as="geometry" />
        </mxCell>
        <mxCell id="ja60NFYnNgO1zGgDAgQr-16" value="" style="edgeStyle=orthogonalEdgeStyle;rounded=0;orthogonalLoop=1;jettySize=auto;html=1;" edge="1" parent="WIyWlLk6GJQsqaUBKTNV-1">
          <mxGeometry relative="1" as="geometry">
            <mxPoint x="322" y="240.5" as="sourcePoint" />
            <mxPoint x="322" y="300.5" as="targetPoint" />
          </mxGeometry>
        </mxCell>
        <mxCell id="ja60NFYnNgO1zGgDAgQr-20" value="" style="edgeStyle=orthogonalEdgeStyle;rounded=0;orthogonalLoop=1;jettySize=auto;html=1;" edge="1" parent="WIyWlLk6GJQsqaUBKTNV-1" source="ja60NFYnNgO1zGgDAgQr-13" target="ja60NFYnNgO1zGgDAgQr-31">
          <mxGeometry relative="1" as="geometry">
            <mxPoint x="432" y="199.5" as="targetPoint" />
          </mxGeometry>
        </mxCell>
        <mxCell id="ja60NFYnNgO1zGgDAgQr-13" value="Data Quality Check" style="rhombus;whiteSpace=wrap;html=1;shadow=0;fontFamily=Helvetica;fontSize=12;align=center;strokeWidth=1;spacing=6;spacingTop=-4;" vertex="1" parent="WIyWlLk6GJQsqaUBKTNV-1">
          <mxGeometry x="272" y="159.5" width="100" height="80" as="geometry" />
        </mxCell>
        <mxCell id="ja60NFYnNgO1zGgDAgQr-18" value="Pass" style="text;html=1;align=center;verticalAlign=middle;whiteSpace=wrap;rounded=0;" vertex="1" parent="WIyWlLk6GJQsqaUBKTNV-1">
          <mxGeometry x="309" y="253" width="60" height="30" as="geometry" />
        </mxCell>
        <mxCell id="ja60NFYnNgO1zGgDAgQr-21" value="Fails" style="text;html=1;align=center;verticalAlign=middle;whiteSpace=wrap;rounded=0;" vertex="1" parent="WIyWlLk6GJQsqaUBKTNV-1">
          <mxGeometry x="470" y="160" width="38" height="30" as="geometry" />
        </mxCell>
        <mxCell id="ja60NFYnNgO1zGgDAgQr-22" value="S3 Raw Layer" style="text;html=1;align=center;verticalAlign=middle;whiteSpace=wrap;rounded=0;" vertex="1" parent="WIyWlLk6GJQsqaUBKTNV-1">
          <mxGeometry x="27" y="245" width="80" height="30" as="geometry" />
        </mxCell>
        <mxCell id="ja60NFYnNgO1zGgDAgQr-26" value="" style="edgeStyle=orthogonalEdgeStyle;rounded=0;orthogonalLoop=1;jettySize=auto;html=1;" edge="1" parent="WIyWlLk6GJQsqaUBKTNV-1" source="ja60NFYnNgO1zGgDAgQr-23">
          <mxGeometry relative="1" as="geometry">
            <mxPoint x="270" y="199" as="targetPoint" />
          </mxGeometry>
        </mxCell>
        <mxCell id="ja60NFYnNgO1zGgDAgQr-23" value="" style="aspect=fixed;sketch=0;html=1;dashed=0;whitespace=wrap;fillColor=#2875E2;strokeColor=#ffffff;points=[[0.005,0.63,0],[0.1,0.2,0],[0.9,0.2,0],[0.5,0,0],[0.995,0.63,0],[0.72,0.99,0],[0.5,1,0],[0.28,0.99,0]];shape=mxgraph.kubernetes.icon2;kubernetesLabel=1;prIcon=job" vertex="1" parent="WIyWlLk6GJQsqaUBKTNV-1">
          <mxGeometry x="170" y="175" width="50" height="48" as="geometry" />
        </mxCell>
        <mxCell id="ja60NFYnNgO1zGgDAgQr-36" value="" style="edgeStyle=orthogonalEdgeStyle;rounded=0;orthogonalLoop=1;jettySize=auto;html=1;" edge="1" parent="WIyWlLk6GJQsqaUBKTNV-1" source="ja60NFYnNgO1zGgDAgQr-27" target="ja60NFYnNgO1zGgDAgQr-31">
          <mxGeometry relative="1" as="geometry" />
        </mxCell>
        <mxCell id="ja60NFYnNgO1zGgDAgQr-27" value="" style="aspect=fixed;sketch=0;html=1;dashed=0;whitespace=wrap;fillColor=#2875E2;strokeColor=#ffffff;points=[[0.005,0.63,0],[0.1,0.2,0],[0.9,0.2,0],[0.5,0,0],[0.995,0.63,0],[0.72,0.99,0],[0.5,1,0],[0.28,0.99,0]];shape=mxgraph.kubernetes.icon2;kubernetesLabel=1;prIcon=job" vertex="1" parent="WIyWlLk6GJQsqaUBKTNV-1">
          <mxGeometry x="297" y="308" width="50" height="48" as="geometry" />
        </mxCell>
        <mxCell id="ja60NFYnNgO1zGgDAgQr-29" value="" style="edgeStyle=orthogonalEdgeStyle;rounded=0;orthogonalLoop=1;jettySize=auto;html=1;" edge="1" parent="WIyWlLk6GJQsqaUBKTNV-1">
          <mxGeometry relative="1" as="geometry">
            <mxPoint x="322" y="354.5" as="sourcePoint" />
            <mxPoint x="322" y="414.5" as="targetPoint" />
          </mxGeometry>
        </mxCell>
        <mxCell id="ja60NFYnNgO1zGgDAgQr-30" value="Pass" style="text;html=1;align=center;verticalAlign=middle;whiteSpace=wrap;rounded=0;" vertex="1" parent="WIyWlLk6GJQsqaUBKTNV-1">
          <mxGeometry x="309" y="367" width="60" height="30" as="geometry" />
        </mxCell>
        <mxCell id="ja60NFYnNgO1zGgDAgQr-31" value="" style="sketch=0;points=[[0,0,0],[0.25,0,0],[0.5,0,0],[0.75,0,0],[1,0,0],[0,1,0],[0.25,1,0],[0.5,1,0],[0.75,1,0],[1,1,0],[0,0.25,0],[0,0.5,0],[0,0.75,0],[1,0.25,0],[1,0.5,0],[1,0.75,0]];outlineConnect=0;fontColor=#232F3E;fillColor=#7AA116;strokeColor=#ffffff;dashed=0;verticalLabelPosition=bottom;verticalAlign=top;align=center;html=1;fontSize=12;fontStyle=0;aspect=fixed;shape=mxgraph.aws4.resourceIcon;resIcon=mxgraph.aws4.s3;" vertex="1" parent="WIyWlLk6GJQsqaUBKTNV-1">
          <mxGeometry x="620" y="268" width="128" height="128" as="geometry" />
        </mxCell>
        <mxCell id="ja60NFYnNgO1zGgDAgQr-33" value="bkt_quarantined&amp;nbsp;&lt;span style=&quot;font-size: medium; text-align: start;&quot;&gt;&lt;/span&gt;" style="text;html=1;align=center;verticalAlign=middle;whiteSpace=wrap;rounded=0;" vertex="1" parent="WIyWlLk6GJQsqaUBKTNV-1">
          <mxGeometry x="639" y="397" width="90" height="30" as="geometry" />
        </mxCell>
        <mxCell id="ja60NFYnNgO1zGgDAgQr-37" value="Fails" style="text;html=1;align=center;verticalAlign=middle;whiteSpace=wrap;rounded=0;" vertex="1" parent="WIyWlLk6GJQsqaUBKTNV-1">
          <mxGeometry x="470" y="300" width="38" height="30" as="geometry" />
        </mxCell>
        <mxCell id="ja60NFYnNgO1zGgDAgQr-40" value="" style="edgeStyle=orthogonalEdgeStyle;rounded=0;orthogonalLoop=1;jettySize=auto;html=1;" edge="1" parent="WIyWlLk6GJQsqaUBKTNV-1" source="ja60NFYnNgO1zGgDAgQr-38" target="ja60NFYnNgO1zGgDAgQr-39">
          <mxGeometry relative="1" as="geometry" />
        </mxCell>
        <mxCell id="ja60NFYnNgO1zGgDAgQr-38" value="" style="sketch=0;html=1;aspect=fixed;strokeColor=none;shadow=0;fillColor=#3B8DF1;verticalAlign=top;labelPosition=center;verticalLabelPosition=bottom;shape=mxgraph.gcp2.process" vertex="1" parent="WIyWlLk6GJQsqaUBKTNV-1">
          <mxGeometry x="288" y="420" width="84" height="100" as="geometry" />
        </mxCell>
        <mxCell id="ja60NFYnNgO1zGgDAgQr-39" value="" style="image;aspect=fixed;perimeter=ellipsePerimeter;html=1;align=center;shadow=0;dashed=0;spacingTop=3;image=img/lib/active_directory/database.svg;" vertex="1" parent="WIyWlLk6GJQsqaUBKTNV-1">
          <mxGeometry x="287" y="585" width="87.84" height="65" as="geometry" />
        </mxCell>
        <mxCell id="ja60NFYnNgO1zGgDAgQr-41" value="ETL Process" style="text;html=1;align=center;verticalAlign=middle;whiteSpace=wrap;rounded=0;" vertex="1" parent="WIyWlLk6GJQsqaUBKTNV-1">
          <mxGeometry x="375" y="455" width="60" height="30" as="geometry" />
        </mxCell>
        <mxCell id="ja60NFYnNgO1zGgDAgQr-42" value="Database" style="text;html=1;align=center;verticalAlign=middle;whiteSpace=wrap;rounded=0;" vertex="1" parent="WIyWlLk6GJQsqaUBKTNV-1">
          <mxGeometry x="375" y="600" width="60" height="30" as="geometry" />
        </mxCell>
        <mxCell id="ja60NFYnNgO1zGgDAgQr-43" value="Data File" style="text;html=1;align=center;verticalAlign=middle;whiteSpace=wrap;rounded=0;" vertex="1" parent="WIyWlLk6GJQsqaUBKTNV-1">
          <mxGeometry x="92.60000000000002" y="75.39999999999998" width="60" height="30" as="geometry" />
        </mxCell>
      </root>
    </mxGraphModel>
  </diagram>
</mxfile>
